<?xml version="1.0" encoding="UTF-8" standalone="no"?>
<!-- Created with Inkscape (http://www.inkscape.org/) -->

<svg
   xmlns:dc="http://purl.org/dc/elements/1.1/"
   xmlns:cc="http://creativecommons.org/ns#"
   xmlns:rdf="http://www.w3.org/1999/02/22-rdf-syntax-ns#"
   xmlns:svg="http://www.w3.org/2000/svg"
   xmlns="http://www.w3.org/2000/svg"
   xmlns:sodipodi="http://sodipodi.sourceforge.net/DTD/sodipodi-0.dtd"
   xmlns:inkscape="http://www.inkscape.org/namespaces/inkscape"
   id="svg2"
   version="1.1"
   inkscape:version="0.47pre4 r22446"
   width="551"
   height="413"
   sodipodi:docname="dice.png">
  <metadata
     id="metadata8">
    <rdf:RDF>
      <cc:Work
         rdf:about="">
        <dc:format>image/svg+xml</dc:format>
        <dc:type
           rdf:resource="http://purl.org/dc/dcmitype/StillImage" />
        <dc:title></dc:title>
      </cc:Work>
    </rdf:RDF>
  </metadata>
  <defs
     id="defs6">
    <inkscape:perspective
       sodipodi:type="inkscape:persp3d"
       inkscape:vp_x="0 : 0.5 : 1"
       inkscape:vp_y="0 : 1000 : 0"
       inkscape:vp_z="1 : 0.5 : 1"
       inkscape:persp3d-origin="0.5 : 0.33333333 : 1"
       id="perspective10" />
  </defs>
  <sodipodi:namedview
     pagecolor="#ffffff"
     bordercolor="#666666"
     borderopacity="1"
     objecttolerance="10"
     gridtolerance="10"
     guidetolerance="10"
     inkscape:pageopacity="0"
     inkscape:pageshadow="2"
     inkscape:window-width="1280"
     inkscape:window-height="934"
     id="namedview4"
     showgrid="false"
     inkscape:zoom="1.1428571"
     inkscape:cx="337.96631"
     inkscape:cy="216.63221"
     inkscape:window-x="0"
     inkscape:window-y="33"
     inkscape:window-maximized="1"
     inkscape:current-layer="svg2" />
  <g
     id="g2818">
    <path
       style="fill:#fefefe"
       d="M 0,206.5 0,0 275.5,0 551,0 551,206.5 551,413 275.5,413 0,413 0,206.5 z"
       id="path2828" />
    <path
       style="fill:#e3e3e3"
       d="m 198,411.36505 c -4.60256,-0.60406 -9.08196,-2.66622 -17,-7.82619 -3.575,-2.32973 -9.23618,-5.99155 -12.58041,-8.13737 -3.34422,-2.14582 -8.74422,-5.68885 -12,-7.8734 -3.25577,-2.18454 -7.11144,-4.65954 -8.56815,-5.5 -2.70058,-1.55811 -4.9984,-3.06634 -19.69685,-12.92857 -4.58998,-3.07973 -9.08998,-6.05643 -10,-6.61487 -16.03955,-9.84277 -27.22705,-17.98171 -29.779186,-21.66444 -1.508357,-2.17656 -6.372378,-6.61847 -10.808936,-9.8709 -4.436557,-3.25244 -8.701338,-6.48407 -9.477291,-7.18142 C 66.702821,322.52199 59.917731,317.58608 55,314.246 53.625,313.31211 52.140139,311.97471 51.70031,311.27401 51.26048,310.5733 50.476677,310 49.958524,310 49.440371,310 43.950232,306.20867 37.758214,301.57483 25.292795,292.24624 21.78831,289.68762 16.425735,286 8.5268806,280.56829 5.2241423,276.98145 3.6279445,272.10136 c -1.4147679,-4.3254 -1.4298996,-5.40525 -0.1367621,-9.75971 0.8896406,-2.99575 2.8200404,-6.2202 4.973355,-8.30728 3.1647596,-3.0674 21.1199326,-12.69583 52.7172556,-28.26953 L 71.863585,220.5 72.181793,190 72.5,159.5 75.407252,154 C 84.036514,137.67498 87.63503,134.14542 104.5,125.46469 c 4.95,-2.54786 13.5,-7.00335 19,-9.90109 23.54746,-12.40624 49.94112,-26.054854 62.45001,-32.293956 l 13.45001,-6.708508 12.8434,-0.400164 c 9.98496,-0.311102 14.18907,-0.02259 18.88973,1.296353 3.32549,0.933084 6.18867,1.549402 6.36264,1.369595 0.17396,-0.179806 2.35195,-4.160187 4.83998,-8.845291 2.48802,-4.685105 6.09702,-11.210105 8.02,-14.5 C 252.27875,52.191733 256.45916,44.775 259.64558,39 269.82557,20.550028 271.81812,17.526383 277.93076,11.252714 282.98283,6.0675656 288.5606,3.1165028 295.92607,1.7318309 299.31808,1.0941515 327.72726,0.53392171 368.5,0.30067133 c 79.2796,-0.45353827 85.13385,-0.0434698 98.54031,6.90238447 10.22277,5.2963962 17.53971,11.9098172 23.82996,21.5387352 2.7875,4.267015 6.00994,9.108209 7.16098,10.758209 1.15104,1.65 5.77739,8.682779 10.28078,15.628398 4.50338,6.945618 8.63797,13.290802 9.18797,14.100408 0.55,0.809605 2.30695,3.451826 3.90433,5.871602 13.2448,20.063737 16.15902,24.532409 16.59567,25.447842 0.275,0.57654 2.63882,4.23904 5.25293,8.13889 3.98873,5.95058 4.99068,8.43499 6.23158,15.45175 1.71901,9.72029 1.91461,19.28607 0.55097,26.94433 -0.53049,2.97923 -1.21645,7.05402 -1.52436,9.05509 -0.48431,3.14742 -3.06294,7.68404 -12.0847,21.26072 -1.05953,1.59447 -2.60142,3.93355 -3.42642,5.19795 -0.825,1.2644 -2.67381,4.00983 -4.10846,6.10096 -1.43465,2.09114 -4.88965,7.40206 -7.67779,11.80206 -2.78814,4.4 -6.03291,9.35 -7.21061,11 -2.02126,2.83186 -3.82965,5.61246 -8.50314,13.07456 -1.1,1.75636 -3.30521,5.15809 -4.90048,7.55941 -1.59526,2.40132 -5.27723,7.96603 -8.18215,12.36603 -6.88646,10.4307 -10.89201,14.55651 -18.1508,18.69573 -2.07161,1.18131 -4.44157,2.69683 -5.26657,3.36783 -1.28344,1.04386 -4.50442,2.40276 -16.5,6.9612 -2.91469,1.1076 -10.86169,2.47177 -20,3.43315 -4.4,0.46289 -9.575,1.30217 -11.5,1.86506 -1.925,0.56289 -8.225,2.21997 -14,3.6824 -5.775,1.46242 -14.36804,3.74698 -19.09563,5.07679 -4.7276,1.32981 -9.36066,2.41784 -10.2957,2.41784 -0.93503,0 -5.16699,1.10242 -9.40436,2.44983 -4.23737,1.34741 -9.05102,2.58491 -10.697,2.75 -2.74086,0.27491 -3.04846,0.69296 -3.65533,4.96784 -0.89476,6.3028 -5.26856,19.97952 -8.0384,25.13581 -1.23986,2.30809 -4.56184,7.1255 -7.38218,10.70536 -4.464,5.66614 -7.38751,8.1825 -14.54113,12.51602 -0.88536,0.53633 -2.68536,1.71277 -4,2.61433 -4.95851,3.40042 -26.43403,17.37835 -27.43852,17.85911 -0.57654,0.27594 -4.17654,2.52741 -8,5.00328 -3.82346,2.47586 -7.69031,4.95086 -8.593,5.5 -0.90268,0.54913 -5.40268,3.51821 -10,6.59794 -32.34131,21.66542 -30.28514,20.77256 -49.04428,21.29686 -8.42296,0.23541 -16.88947,0.22131 -18.81447,-0.0313 z m 29.10009,-9.37624 c 1.98005,-0.55002 4.45505,-1.96299 5.5,-3.13993 1.88476,-2.12284 1.88249,-2.13076 -0.28435,-0.99439 -3.07573,1.61303 -8.45258,1.42282 -12.16753,-0.43044 C 216.9035,395.80538 212,387.10731 212,382.97036 c 0,-3.57993 -1.68905,-2.05463 -4.39039,3.96474 -3.38276,7.53781 -7.76202,10.61596 -13.74265,9.65962 -2.64921,-0.42363 -3.79754,-0.29142 -3.37714,0.38881 0.86926,1.4065 6.35638,4.19189 10.01018,5.0814 4.55025,1.10775 22.52335,1.05632 26.60009,-0.0761 z M 187.5,394 c -0.33992,-0.55 -1.06803,-1 -1.61803,-1 -0.55,0 -0.72189,0.45 -0.38197,1 0.33992,0.55 1.06803,1 1.61803,1 0.55,0 0.72189,-0.45 0.38197,-1 z m -8.5,-5.39301 c 0,-0.21616 -0.69837,-0.661 -1.55194,-0.98855 -0.88992,-0.34149 -1.29132,-0.17385 -0.94098,0.39301 0.58726,0.95021 2.49292,1.40545 2.49292,0.59554 z m 33,-132.19331 c 0,-3.28388 4.33855,-17.15703 7.32217,-23.41368 2.94782,-6.18159 11.63608,-17.93234 14.0482,-19 1.23337,-0.54592 5.96722,-3.57592 17.52866,-11.21959 1.43054,-0.94577 3.95097,-2.47158 5.60097,-3.39069 1.65,-0.91911 4.27203,-2.7328 5.82673,-4.03041 1.55469,-1.29762 3.19402,-2.35931 3.64294,-2.35931 0.44892,0 5.89554,-3.41699 12.1036,-7.59331 6.20806,-4.17632 12.21873,-7.99733 13.35705,-8.49113 1.13833,-0.4938 3.19468,-1.7526 4.56968,-2.79733 4.19976,-3.19099 17.9923,-12.11647 18.76929,-12.14605 0.40189,-0.0153 2.46234,-1.33843 4.57878,-2.9403 4.45632,-3.37284 12.77573,-4.88158 17.61519,-3.19453 2.61567,0.91182 3.03674,0.8201 3.03674,-0.66153 0,-4.54719 -11.11298,-14.09454 -24.57787,-21.11526 -4.35717,-2.27187 -10.03214,-5.3524 -12.61105,-6.84562 C 300.23218,125.72172 293.32585,121.8 287.46369,118.5 273.12907,110.43058 272.94872,110.32983 260.97475,103.7022 255.21364,100.51342 248.25,96.575192 245.5,94.950594 233.09768,87.62376 224.56203,85.406502 212.48143,86.373538 203.22302,87.114663 195.92171,89.643079 182,96.929154 c -6.325,3.310256 -16.45,8.543796 -22.5,11.630096 -6.05,3.08629 -15.95,8.19809 -22,11.35955 C 119.75949,129.1892 104.19666,137 103.46613,137 c -1.4068,0 -8.326702,6.12117 -12.678768,11.21532 -2.485969,2.90986 -4.848313,6.7857 -5.249652,8.61299 l -0.729708,3.32234 3.075523,-1.59042 c 2.060717,-1.06564 4.319639,-1.38966 6.845999,-0.98201 3.706778,0.59813 5.357966,1.42867 16.743366,8.42178 3.13407,1.925 6.44729,3.95855 7.36271,4.51901 0.91542,0.56045 4.8034,3.03545 8.63996,5.5 3.83656,2.46454 7.74609,4.93099 8.68784,5.48099 4.95897,2.89614 39.37774,24.82912 47.71233,30.40416 11.94729,7.99157 19.96513,20.18549 24.2272,36.84584 2.13967,8.36397 3.89707,11.81993 3.89707,7.66368 z m -4.5,-89.82977 c -0.55,-0.20368 -4.50515,-1.15012 -8.78922,-2.10321 -10.05205,-2.2363 -13.52768,-4.61476 -17.05742,-11.67285 -2.49339,-4.98579 -2.71041,-6.10265 -1.74878,-9 2.39576,-7.21836 4.56863,-9.40175 12.74975,-12.81149 7.19735,-2.99972 8.73014,-3.2702 18.54909,-3.27315 9.80149,-0.003 11.3604,0.26978 18.5,3.23647 6.71159,2.78884 8.20711,3.87802 10.74658,7.82669 3.81663,5.93456 3.76305,9.64815 -0.22896,15.86916 -3.42255,5.3336 -7.09745,7.61932 -15.99883,9.95102 -5.62799,1.47424 -15.06685,2.59036 -16.72221,1.97736 z m 279.47776,71.03123 c 0.0122,-0.48667 -0.87776,0.25931 -1.97776,1.65773 -1.1,1.39842 -1.98999,2.92161 -1.97776,3.38486 0.0288,1.09208 3.92622,-3.8764 3.95552,-5.04259 z m 4.15078,-5.86514 c 1.08712,-2.04022 1.04378,-2.12204 -0.46482,-0.87756 -0.91505,0.75485 -1.66372,1.76735 -1.66372,2.25 0,1.52749 0.88863,0.95452 2.12854,-1.37244 z m 5,-8 c 1.08712,-2.04022 1.04378,-2.12204 -0.46482,-0.87756 -0.91505,0.75485 -1.66372,1.76735 -1.66372,2.25 0,1.52749 0.88863,0.95452 2.12854,-1.37244 z M 502,214.75511 c 0,-0.55783 -0.66326,-0.44954 -1.5,0.24489 -0.825,0.68469 -1.5,1.69489 -1.5,2.24489 0,0.55783 0.66326,0.44954 1.5,-0.24489 0.825,-0.68469 1.5,-1.69489 1.5,-2.24489 z m 6,-9.56868 c 0,-1.2558 -0.29285,-1.18151 -1.4682,0.37244 -1.92085,2.53959 -1.9402,4.02496 -0.0318,2.44113 0.825,-0.68469 1.5,-1.9508 1.5,-2.81357 z m 5,-8.56869 c 0,-0.55 -0.66069,-0.12649 -1.4682,0.94113 -0.8075,1.06762 -1.46819,2.39113 -1.46819,2.94113 0,0.55 0.66069,0.12649 1.46819,-0.94113 0.80751,-1.06762 1.4682,-2.39113 1.4682,-2.94113 z m 4.99341,-7.77547 c -0.004,-0.73825 -0.90066,0.008 -1.99341,1.65773 -2.58363,3.90115 -2.58363,5.51168 0,2.22713 1.1,-1.39842 1.99703,-3.14661 1.99341,-3.88486 z m 4.31985,-5.93218 c 0.41451,-1.58509 0.24441,-1.78787 -0.78387,-0.93448 -0.72229,0.59945 -1.55149,2.00088 -1.84265,3.1143 -0.41451,1.58509 -0.24441,1.78787 0.78387,0.93448 0.72229,-0.59945 1.55149,-2.00088 1.84265,-3.1143 z M 529,172.54827 c 0,-0.36465 2.07997,-3.6388 4.62216,-7.27588 6.42157,-9.18727 7.5145,-12.32678 8.12065,-23.32707 0.44946,-8.15677 0.20316,-10.55109 -1.63044,-15.84941 -1.18793,-3.43263 -2.95472,-7.44597 -3.9262,-8.91853 -0.97147,-1.47256 -2.19828,-3.40854 -2.72624,-4.30218 C 532.93197,111.98156 529.35,106.43488 525.5,100.54925 521.65,94.663609 516.44361,86.619769 513.93025,82.674044 503.24713,65.902648 497.68408,57.345091 495.94007,55 494.9175,53.625 492.72628,50.168452 491.0707,47.318782 481.35331,30.592786 471.453,20.046257 461.02495,15.311867 c -3.01127,-1.367135 -9.6544,-3.571587 -14.7625,-4.898783 L 436.975,8 371.808,8 c -64.59136,0 -65.22505,0.01953 -71.7375,2.210915 -12.62873,4.249456 -17.59471,9.06538 -26.91762,26.104244 -5.61648,10.264865 -4.93621,11.892987 0.84935,2.0328 C 280.46198,27.33878 281.66947,26 285.1393,26 288.12344,26 295,30.331042 295,32.210528 c 0,0.535233 0.92959,2.169323 2.06575,3.631311 1.94089,2.497504 20.07551,31.33087 29.27228,46.541839 2.28908,3.786023 4.93578,8.061023 5.88156,9.5 0.94577,1.438977 2.47031,3.966322 3.38785,5.616322 0.91755,1.65 2.89577,4.8 4.39604,7 7.27268,10.66464 18.05022,29.03261 18.96262,32.31765 1.8932,6.81636 1.24651,13.21312 -1.97877,19.57327 -4.1403,8.16454 -3.74996,9.09244 1.71435,4.07534 2.58592,-2.37429 9.0527,-6.56286 14.3706,-9.30793 15.01294,-7.7496 19.35379,-8.16589 84.70799,-8.12344 60.21035,0.0391 67.11516,0.57462 72.3743,5.61319 1.58954,1.52288 3.3776,4.39612 3.97348,6.38498 0.95254,3.17929 0.76011,4.25414 -1.59299,8.89774 -1.47202,2.9049 -3.9946,7.10135 -5.60573,9.32545 -3.57596,4.93647 -3.88326,7.03088 -0.42933,2.92612 1.375,-1.6341 2.5,-3.26944 2.5,-3.6341 z M 384.45177,120.02708 c -15.49175,-3.26769 -21.92269,-7.32188 -24.27913,-15.30605 -1.20653,-4.08799 -1.14224,-4.860287 0.70615,-8.483432 3.7575,-7.365319 9.63957,-10.552724 24.5662,-13.312062 4.01559,-0.742322 6.90136,-0.629412 11.69316,0.457513 15.25984,3.461391 16.69682,4.237133 21.88679,11.815419 3.70233,5.406042 3.58959,7.021152 -0.97068,13.905902 -3.24399,4.89753 -6.38381,6.84158 -15.05426,9.32101 -7.33189,2.09665 -13.62525,2.6401 -18.54823,1.6017 z m 87.30555,-3.00801 c -8.18267,-1.07346 -18.00174,-6.32996 -20.66028,-11.0602 -2.6322,-4.68337 -2.67682,-10.495708 -0.11285,-14.700894 4.16121,-6.824838 20.7631,-11.90675 34.51581,-10.565446 6.63056,0.64668 17.05572,4.863192 20.47291,8.280377 14.29569,14.295693 -6.85797,31.635113 -34.21559,28.046163 z M 339.84325,60.626366 c -9.70917,-2.874006 -14.1157,-6.441263 -16.34886,-13.235022 -1.61786,-4.921887 -1.60553,-5.253167 0.33729,-9.061409 6.34104,-12.42947 30.96564,-17.333116 47.39677,-9.438407 6.73613,3.236522 12.31113,8.542504 13.38347,12.737633 0.74267,2.905436 -3.85113,11.692921 -7.45368,14.258165 -5.54568,3.948868 -16.60177,7.140015 -24.45703,7.059092 -2.86067,-0.02947 -8.64675,-1.073493 -12.85796,-2.320052 z M 435,57.38826 c -0.825,-0.311016 -4.46415,-1.66192 -8.08699,-3.002007 C 419.50309,51.64533 415.81496,48.294299 414.01604,42.668102 411.4693,34.703032 417.0051,27.666863 429,23.623021 c 9.66187,-3.257307 14.18773,-3.808164 20.90276,-2.544146 14.3673,2.704455 23.44368,7.780287 25.13342,14.055488 3.33203,12.374201 -8.76381,21.736281 -29.03618,22.473778 -5.225,0.190082 -10.175,0.09114 -11,-0.219881 z M 256.12854,68.75 c 1.08712,-2.040222 1.04378,-2.122041 -0.46482,-0.877555 -0.91505,0.754844 -1.66372,1.767344 -1.66372,2.25 0,1.527484 0.88863,0.954513 2.12854,-1.372445 z m 5.85615,-10.059017 C 261.99311,58.246024 261.55,58.160081 261,58.5 c -0.55,0.339919 -0.99311,1.378976 -0.98469,2.309017 0.0132,1.457275 0.14929,1.48367 0.98469,0.190983 0.53316,-0.825 0.97627,-1.864058 0.98469,-2.309017 z m 4.98351,-9.132113 c -0.0175,-0.582378 -0.6925,-0.185362 -1.5,0.88226 -0.80751,1.067621 -1.45389,2.417621 -1.4364,3 0.0175,0.582378 0.6925,0.185362 1.5,-0.88226 0.80751,-1.067621 1.45389,-2.417621 1.4364,-3 z"
       id="path2826" />
    <path
       style="fill:#b5b5b5"
       d="m 198,411.0886 c -6.03263,-1.42682 -8.82399,-3.05721 -35.41863,-20.68745 -6.55525,-4.34563 -12.40525,-8.12615 -13,-8.40115 -0.94239,-0.43574 -10.98808,-6.9763 -25.47436,-16.58588 -2.41614,-1.60277 -5.11614,-3.3726 -6,-3.93296 -16.58527,-10.515 -25.311751,-16.94814 -29.055545,-21.41969 -2.420654,-2.89121 -6.910002,-7.12214 -9.976327,-9.40208 C 60.678875,316.98103 51.826239,310.50269 50.160889,309.5 49.2474,308.95 43.1,304.44145 36.5,299.48101 29.9,294.52056 21.575,288.37686 18,285.82833 5.2288972,276.72415 1.9288008,270.97012 4.5043289,262.29738 6.4776642,255.65244 10.764758,252.20359 27.5,243.79799 c 7.15,-3.59122 20.2,-10.21498 29,-14.71947 l 16,-8.18998 L 73,190.19427 73.5,159.5 77.39928,152 C 83.079576,141.07434 92.019063,132.62986 104.59962,126.30583 110.04483,123.56862 119,118.95465 124.5,116.05257 146.26165,104.57001 173.16618,90.657071 185.95001,84.275383 l 13.45001,-6.714247 12.8434,-0.400164 c 10.04302,-0.312911 14.17937,-0.02531 18.97056,1.319031 l 6.12716,1.719194 1.8072,-2.349598 c 0.99395,-1.29228 1.81719,-2.695267 1.82942,-3.11775 0.0122,-0.422484 2.87266,-5.822484 6.3565,-12 C 250.8181,56.554332 256.58539,46.325 260.15046,40 c 3.56507,-6.325 6.75725,-12.239872 7.09374,-13.144159 1.03751,-2.788212 9.50945,-13.432361 13.43317,-16.8774282 2.04656,-1.7969051 5.73552,-4.1582118 8.1977,-5.2473483 10.22427,-4.52268314 13.89894,-4.73149413227 83.12456,-4.72351034 75.11318,0.0086628 78.2401,0.25305662 93.00037,7.26873004 10.79176,5.1294098 19.14572,12.4675638 25.64053,22.5227488 2.02529,3.135532 8.4472,12.892877 14.27091,21.682989 5.82371,8.790112 10.77399,16.440112 11.00062,17 0.22664,0.559888 2.51967,4.167978 5.09562,8.017978 2.57595,3.85 5.41106,8.125 6.30024,9.5 0.88917,1.375 3.43365,5.132898 5.65438,8.350883 2.22074,3.217986 4.0377,6.050807 4.0377,6.295157 0,0.24436 2.1662,3.68646 4.81377,7.64912 2.64757,3.96266 5.3189,8.55484 5.93628,10.20484 3.41712,9.13259 4.14785,22.43166 1.86815,34 -1.67413,8.49534 -2.56392,10.81133 -6.35892,16.5512 -6.59277,9.97147 -10.81373,16.4673 -11.75928,18.09694 -0.55,0.94791 -2.75767,4.33986 -4.90593,7.53767 -2.14826,3.1978 -6.68799,10.08919 -10.0883,15.31419 -3.40031,5.225 -7.04264,10.79702 -8.09407,12.38227 -1.05144,1.58525 -2.36867,3.61025 -2.92718,4.5 -15.2697,24.32563 -24.75954,36.18244 -31.82041,39.75705 -1.74026,0.88102 -3.83911,2.17389 -4.66411,2.87304 -1.28428,1.08838 -4.43871,2.42899 -16.5,7.0124 -2.91469,1.1076 -10.86169,2.47177 -20,3.43315 -4.4,0.46289 -9.575,1.30217 -11.5,1.86506 -1.925,0.56289 -8.225,2.21997 -14,3.6824 -5.775,1.46242 -14.36804,3.74698 -19.09563,5.07679 -4.7276,1.32981 -9.4526,2.42956 -10.5,2.44388 -1.04741,0.0143 -5.26357,1.13932 -9.36926,2.5 -4.10568,1.36068 -8.60568,2.48085 -10,2.48927 -3.8412,0.0232 -4.6745,1.03503 -5.3405,6.48469 -0.78843,6.45143 -4.73829,18.62669 -8.11042,25 -3.22767,6.10027 -14.19211,18.45423 -18.1751,20.47842 -1.6,0.81314 -4.03409,2.29494 -5.40909,3.2929 C 316.72548,356.37373 292.63055,372 292.12132,372 c -0.26547,0 -3.66738,2.1375 -7.55982,4.75 -3.89243,2.6125 -7.81707,5.2 -8.72142,5.75 -0.90435,0.55 -4.72583,3.05989 -8.49218,5.57753 -6.97983,4.66573 -20.54787,13.57933 -23.45665,15.40999 -0.88481,0.55687 -4.38694,2.48885 -7.78252,4.29329 -5.97772,3.17663 -6.6253,3.29439 -20.39126,3.70821 C 207.89786,411.72409 199.925,411.5439 198,411.0886 z m 34.61407,-10.86625 c 2.68726,-1.80271 12.64672,-8.32771 22.13212,-14.5 9.48541,-6.17229 22.03404,-14.37235 27.88585,-18.22235 5.85181,-3.85 12.10565,-7.9 13.89741,-9 3.43103,-2.10638 7.17738,-4.55797 11.68006,-7.64335 1.49023,-1.02116 3.12263,-1.85665 3.62755,-1.85665 0.50493,0 1.50738,-0.7101 2.22768,-1.57801 0.7203,-0.8679 3.39145,-2.63295 5.9359,-3.92231 7.58662,-3.84443 17.58275,-16.56944 20.51347,-26.1135 C 345.02606,302.69272 345,303.18613 345,232.46078 l 0,-67.41512 -2.43976,-6.48184 c -1.34186,-3.56501 -3.47936,-7.89202 -4.75,-9.61557 -2.83491,-3.84541 -12.53062,-10.72195 -22.69522,-16.09624 -4.18826,-2.21445 -9.41502,-5.05377 -11.61502,-6.30959 -11.58928,-6.61553 -26.75504,-15.14537 -32.5,-18.27934 -3.575,-1.95022 -9.65,-5.33916 -13.5,-7.53098 -21.89105,-12.462661 -24.47442,-13.67222 -31.80259,-14.890279 -7.43047,-1.235064 -18.68905,-0.478301 -25.35086,1.703999 -4.57981,1.500271 -16.79929,7.49999 -41.84655,20.54651 -6.05,3.15129 -15.18217,7.83024 -20.2937,10.39765 -5.11154,2.56741 -11.86976,6.12409 -15.01827,7.90374 -3.14851,1.77964 -9.09135,4.77418 -13.2063,6.65453 C 99.777437,137.71116 94.826473,141.349 89.699422,147.95118 86.196292,152.4622 83,159.83888 83,163.41268 c 0,0.28988 1.6875,-0.62153 3.75,-2.02534 2.94721,-2.00597 4.524465,-2.42967 7.367691,-1.9792 4.495724,0.7123 5.215903,1.09539 22.384249,11.90707 7.69893,4.84836 14.87553,9.34836 15.94799,10 1.07247,0.65163 6.69747,4.20027 12.5,7.88586 5.80254,3.68558 13.92507,8.83761 18.05007,11.44896 27.87006,17.6432 31.70223,21.0451 37.94072,33.68074 2.21833,4.49308 4.95255,12.09202 6.07604,16.88655 1.95706,8.35178 2.03098,11.26607 1.76298,69.5 L 208.5,381.5 l -2.27434,4.69924 c -2.6312,5.43658 -6.81369,8.81078 -10.88003,8.7774 -3.61886,-0.0297 -8.7169,-3.00161 -43.13923,-25.14798 -3.13852,-2.01923 -9.0814,-5.75889 -13.2064,-8.31034 -4.125,-2.55145 -14.20265,-8.89669 -22.39479,-14.10054 -8.19213,-5.20385 -15.06522,-9.2911 -15.27354,-9.08279 -0.20831,0.20832 -0.11545,1.00566 0.20635,1.77188 0.54885,1.30684 2.70596,2.79041 16.46198,11.32185 3.025,1.87609 6.69617,4.34713 8.15816,5.49118 1.46199,1.14406 3.11735,2.0801 3.67857,2.0801 0.56123,0 1.61506,0.58873 2.34184,1.3083 1.30558,1.29261 6.31331,4.59383 27.48148,18.11648 5.96197,3.80863 15.78995,10.15363 21.83995,14.10001 17.76141,11.58564 17.3291,11.44406 34.11407,11.17175 11.88449,-0.19282 12.20667,-0.25866 17,-3.47419 z m 17.7205,-30.18392 c -2.23671,-1.00141 -5.29579,-3.4321 -6.79796,-5.40155 -3.5724,-4.68365 -7.74053,-17.78157 -7.71965,-24.25819 0.0196,-6.08226 4.97167,-21.05774 8.36052,-25.28294 5.33652,-6.65354 16.43525,-6.14809 21.37033,0.97324 3.3205,4.79148 7.55385,18.02559 7.64976,23.91435 0.0405,2.48416 -0.94421,8.1787 -2.18816,12.65452 -2.56283,9.22129 -7.07911,15.37312 -13.05876,17.78794 -3.19172,1.28894 -3.95909,1.24991 -7.61608,-0.38737 z m 57.92616,-35.01118 c -4.09466,-1.74603 -9.14095,-11.20328 -11.11598,-20.83246 -1.74421,-8.50376 -1.74501,-9.15652 -0.0216,-17.49434 2.3675,-11.45412 7.03405,-19.06804 12.73329,-20.77557 8.79402,-2.63476 14.8272,1.51006 19.75989,13.57512 2.43651,5.95955 2.85598,8.33772 2.82215,16 -0.0337,7.63938 -0.48561,10.073 -2.98909,16.09751 -1.62215,3.90363 -4.2239,8.59468 -5.78168,10.42455 -2.42734,2.85134 -3.5712,3.3723 -8,3.64355 -2.84222,0.17408 -6.17535,-0.11318 -7.40695,-0.63836 z m -63.2634,-55.52922 c -8.30493,-6.12718 -12.78304,-21.75264 -10.3333,-36.05592 1.43796,-8.39578 5.41059,-16.66207 9.46071,-19.68592 7.35808,-5.4936 16.68225,-1.8955 22.13504,8.54169 3.15004,6.0295 3.24022,6.55003 3.24022,18.70212 0,11.7352 -0.18078,12.89169 -2.95471,18.90185 -4.98468,10.8001 -14.29574,14.9467 -21.54796,9.59618 z m 57.76236,-37.1424 c -2.04411,-1.4544 -3.98158,-3.4794 -4.30551,-4.5 C 298.13025,236.83504 297.52531,236 297.10987,236 c -1.96523,0 -5.0654,-9.05055 -5.66051,-16.52513 -0.90985,-11.42751 0.63862,-19.26191 5.15065,-26.05958 8.42974,-12.69994 19.03599,-11.89109 27.33648,2.08471 l 3.56351,6 0,13 0,13 -3.73236,6.10178 C 319.57708,240.45263 313.85876,245 309.43437,245 c -1.62697,0 -4.63058,-1.18996 -6.67468,-2.64437 z M 207.5,165.58391 c -0.55,-0.20368 -4.56447,-1.16409 -8.92105,-2.13425 -9.30415,-2.07193 -14.46359,-5.96227 -17.11511,-12.90518 -1.57116,-4.11402 -1.55648,-4.5442 0.29639,-8.68643 2.50605,-5.60246 4.47329,-7.27675 12.31945,-10.48488 5.5398,-2.26511 7.88779,-2.62706 17.12037,-2.63916 9.50162,-0.0124 11.50058,0.30967 17.84764,2.87599 5.88002,2.37748 7.69778,3.68288 10.24996,7.36087 3.98622,5.74462 4.02214,9.69043 0.13851,15.21616 -3.52707,5.0184 -7.23579,7.34929 -14.84859,9.33218 -5.94632,1.54882 -15.39699,2.69075 -17.08757,2.0647 z M 448,269.80508 c 7.0541,-2.46037 20.75164,-9.76144 23.24187,-12.3884 1.24197,-1.31017 2.66267,-2.3899 3.15711,-2.3994 2.49513,-0.0479 8.90888,-8.86919 25.09689,-34.51728 1.73568,-2.75 4.02166,-6.30687 5.07996,-7.90416 3.88333,-5.86112 12.38396,-19.28396 16.52638,-26.09584 2.34126,-3.85 5.0234,-7.9 5.96033,-9 0.93693,-1.1 2.44741,-3.35 3.35662,-5 0.90921,-1.65 2.98751,-5.025 4.61845,-7.5 5.85483,-8.88486 7.13464,-12.70024 7.69967,-22.95436 0.45777,-8.30747 0.21779,-10.6251 -1.66286,-16.0594 -1.20881,-3.49295 -3.07007,-7.57575 -4.13613,-9.0729 C 535.87223,115.4162 535,113.95006 535,113.65526 c 0,-0.2948 -3.7125,-6.14995 -8.25,-13.01144 C 522.2125,93.782321 514.93727,82.617988 510.58283,75.834186 500.7121,60.456539 494.17161,50.333512 485.78647,37.455634 475.01889,20.918808 466.04777,14.553742 446.26245,9.4130837 L 436.975,7 371.808,7 C 307.59541,7 306.54476,7.0318234 300.0705,9.172867 289.95952,12.516572 284.12887,16.942029 278.5591,25.5 275.30551,30.499139 259,59.658156 259,60.477375 c 0,0.238594 -1.09567,2.048373 -2.43483,4.021732 -3.70639,5.461666 -9.92029,18.479105 -9.17622,19.223172 1.02096,1.020963 2.72181,-1.316793 9.98377,-13.722279 3.70254,-6.325 7.15364,-12.175 7.66911,-13 0.51548,-0.825 1.83771,-3.161287 2.9383,-5.191748 1.1006,-2.030461 3.01781,-5.25971 4.26048,-7.176109 1.24266,-1.916399 4.05939,-6.438941 6.25939,-10.050094 3.52212,-5.781326 4.36592,-6.566707 7.06291,-6.573891 2.07793,-0.0055 3.86355,0.876189 5.55262,2.741842 2.84679,3.144395 3.52122,4.175364 17.88447,27.338754 2.475,3.991395 5.98182,9.5032 7.79294,12.248456 1.81111,2.745255 4.86338,7.799601 6.78282,11.23188 1.91944,3.432279 4.15012,6.788448 4.95707,7.458153 0.80694,0.669706 1.46717,1.700859 1.46717,2.291451 0,0.590593 1.05988,2.672993 2.35529,4.627555 4.23451,6.389201 10.07651,15.587931 13.64471,21.484781 1.925,3.18128 5.25831,8.48601 7.40736,11.78829 3.42765,5.26702 3.9654,6.90857 4.38012,13.37088 0.42452,6.61482 0.18498,7.93552 -2.34683,12.93957 -2.69395,5.32449 -2.7666,5.82949 -1.63013,11.33173 0.75105,3.63622 1.18948,15.90645 1.18948,33.28957 l 0,27.53067 5.32594,1.19189 c 9.62379,2.15371 18.95124,8.41849 20.78207,13.95827 0.88765,2.68589 0.76761,4.20527 -0.61915,7.83645 -2.15384,5.63974 -9.25481,10.49693 -18.881,12.91496 C 355.06845,265.22595 355,265.27873 355,268.67857 l 0,3.43543 44.25,-0.3697 c 36.94113,-0.30863 44.99327,-0.62893 48.75,-1.93922 z m 12.5,-66.65774 c -4.4,-0.91077 -9.575,-2.66599 -11.5,-3.9005 -1.925,-1.23451 -4.71059,-3.02535 -6.19019,-3.97965 -5.89956,-3.80502 -5.62172,-15.27811 0.46376,-19.15058 1.77454,-1.12922 4.25326,-2.80681 5.50827,-3.72798 C 451.96272,170.05388 463.52106,167 469.17674,167 474.20828,167 490,171.5083 490,172.94473 c 0,0.47175 1.59706,1.80001 3.54902,2.95169 4.76424,2.81097 6.96918,8.00338 5.40773,12.73464 -2.61283,7.91693 -11.35761,12.77742 -28.45675,15.81672 -1.1,0.19552 -5.6,-0.38968 -10,-1.30044 z m -76.14382,-84.18663 c -14.17682,-2.80594 -21.0636,-7.06179 -23.21433,-14.34586 -1.53799,-5.208864 -0.45526,-8.056171 5.08903,-13.382872 6.12296,-5.882653 21.48287,-9.110051 31.76912,-6.675276 3.575,0.846209 7.82964,1.806725 9.45475,2.13448 3.41664,0.689074 12.2475,9.27432 13.12148,12.756535 1.25117,4.985023 -6.3775,14.937693 -12.71459,16.587973 -16.81645,4.37929 -16.41208,4.32897 -23.50546,2.92502 z m 87.34657,-2.94737 c -7.30386,-0.95638 -16.51538,-5.69474 -19.45275,-10.00641 -3.19607,-4.6914 -3.04781,-10.905332 0.35673,-14.9514 7.83858,-9.315625 30.2814,-12.529947 44.38318,-6.356679 12.40743,5.431539 15.75486,13.435277 9.22618,22.059899 -5.42431,7.16571 -20.20262,11.12844 -34.51334,9.25459 z M 340.63376,59.900677 c -8.94935,-2.551077 -14.6803,-7.150283 -16.47228,-13.21934 -1.1399,-3.860601 -1.10731,-4.885405 0.23807,-7.487082 6.40209,-12.380274 30.43193,-17.161007 46.79943,-9.310741 C 377.72409,33.013122 384,39.314676 384,42.736841 c 0,4.50688 -7.11622,13.214554 -12.5,15.295469 -11.2773,4.358852 -20.22865,4.900687 -30.86624,1.868367 z m 89.13882,-5.369949 c -9.1724,-3.264741 -13.23645,-6.544216 -14.73278,-11.888593 -2.77171,-9.899545 5.13984,-16.838844 23.55722,-20.662276 8.51567,-1.767846 23.36945,1.824981 30.7183,7.43013 4.7905,3.65384 6.24099,7.810318 4.70987,13.496477 -3.05852,11.358456 -27.19009,17.697332 -44.25261,11.624262 z"
       id="path2824" />
    <path
       style="fill:#5b5b5b"
       d="m 198.5,410.55101 c -7.53771,-3.04112 -11.33955,-5.08194 -20.82893,-11.18093 -5.59409,-3.59541 -11.29607,-7.40252 -12.67107,-8.46024 -1.375,-1.05771 -4.90206,-3.38263 -7.83792,-5.16648 -2.93586,-1.78385 -6.35158,-3.91836 -7.59049,-4.74336 -6.23155,-4.14962 -31.0551,-20.46802 -32.68932,-21.48916 -1.69106,-1.05666 -2.23244,-1.41432 -15.68382,-10.36155 C 96.43033,345.97777 91.451417,341.685 89.500858,339.06375 87.63304,336.55369 82.901292,332.25 78.985863,329.5 c -3.915429,-2.75 -9.079958,-6.575 -11.47673,-8.5 -2.396772,-1.925 -5.854325,-4.5422 -7.68345,-5.816 C 57.996557,313.9102 51.325,309.07279 45,304.43419 c -6.325,-4.6386 -12.59618,-9.2214 -13.935956,-10.184 -1.339776,-0.96261 -3.589776,-2.66637 -5,-3.78614 -1.410224,-1.11978 -5.114708,-3.75671 -8.232186,-5.85984 C 6.6877268,277.08607 3.1754312,271.1603 5.1695375,263.24099 6.8377908,256.61575 11.676589,252.91832 32.579583,242.29636 42.985812,237.00838 56.45,230.16038 62.5,227.07859 l 11,-5.60326 0.528467,-30.98767 L 74.556934,159.5 78.431988,152 c 5.608446,-10.8549 13.450876,-18.17124 26.576262,-24.79345 5.77046,-2.91139 14.99175,-7.66087 20.49175,-10.5544 24.16701,-12.71418 48.97815,-25.558999 61,-31.57993 l 13,-6.510821 12.79341,-0.400295 c 9.92007,-0.310391 14.14553,-0.02091 18.81367,1.288904 7.35175,2.062796 7.52781,1.94828 12.78223,-8.313964 C 246.03968,66.93622 249.38318,60.8 251.31932,57.5 255.16959,50.937482 261.91036,38.895153 266.99249,29.5 273.3784,17.694603 281.59568,8.9360281 289.5,5.509861 302.96731,-0.32761139 299.52321,-0.11541322 375.59622,0.2052976 440.4533,0.47872396 445.82488,0.63128227 450,2.3184403 c 2.475,1.0001422 5.85,2.1949213 7.5,2.6550647 4.92124,1.3724105 14.65823,6.901007 20,11.355867 6.4495,5.378672 9.00123,8.402156 14.5,17.180712 4.91691,7.849636 7.45011,11.730094 15.90048,24.35691 3.07973,4.601847 6.49952,9.837132 7.59952,11.633967 2.148,3.508723 4.62215,7.264085 13.40048,20.339744 3.07973,4.587388 6.2369,9.529892 7.01592,10.983345 0.77903,1.45345 3.26923,5.35013 5.5338,8.65929 7.32639,10.70591 9.0498,16.32694 9.0498,29.51666 0,15.86504 -1.68554,20.37443 -15.08462,40.3564 -1.05346,1.57102 -2.81538,4.30725 -3.91538,6.08051 -3.57344,5.76058 -15.61657,23.99584 -17.54309,26.56309 -1.03183,1.375 -3.35675,4.93719 -5.16648,7.91598 -1.80974,2.97879 -3.96543,6.39451 -4.79043,7.59049 -0.825,1.19598 -2.80521,4.15879 -4.40048,6.58402 -15.81623,24.04494 -16.76016,25.19084 -25.76121,31.2735 -5.73,3.87218 -9.44529,5.6413 -21.33831,10.16077 -2.91469,1.1076 -10.86169,2.47177 -20,3.43315 -4.4,0.46289 -9.575,1.30217 -11.5,1.86506 -1.925,0.56289 -8.225,2.21997 -14,3.6824 -5.775,1.46242 -14.36804,3.74698 -19.09563,5.07679 -4.7276,1.32981 -9.4526,2.42956 -10.5,2.44388 -1.04741,0.0143 -5.26357,1.13932 -9.36926,2.5 -4.10568,1.36068 -8.63218,2.47396 -10.05887,2.47396 -3.97551,0 -5.68141,2.02618 -6.31444,7.5 -0.74336,6.42774 -4.67715,18.51549 -8.24692,25.34112 C 340.66487,335.09932 327.12537,350 325.09751,350 c -0.57147,0 -2.96469,1.31489 -5.31827,2.92197 -4.3897,2.99741 -23.82418,15.793 -26.68389,17.56858 -0.87744,0.5448 -4.74535,3.0198 -8.59535,5.5 -3.85,2.4802 -7.45,4.73622 -8,5.01339 -0.55,0.27716 -3.63276,2.30216 -6.85057,4.5 -3.21782,2.19783 -7.28936,4.89606 -9.04788,5.99606 -1.75851,1.1 -5.62091,3.575 -8.5831,5.5 -15.97613,10.3822 -19.20559,12.04186 -26.51845,13.6282 -7.38857,1.60276 -22.94635,1.55828 -27,-0.0772 z m 33.5,-8.8206 c 2.475,-1.52328 7.875,-4.99482 12,-7.71454 7.00001,-4.61529 11.93943,-7.79509 31.86884,-20.51587 4.30838,-2.75 10.4879,-6.79823 13.73228,-8.99606 3.24439,-2.19784 6.34888,-4.22284 6.89888,-4.5 0.55,-0.27717 3.025,-1.82013 5.5,-3.4288 6.85875,-4.45798 17.19429,-11.05747 20.08788,-12.82659 7.51537,-4.59484 17.06371,-17.68197 19.88048,-27.24855 C 347.23279,298.62047 347,302.41776 347,234.42259 c 0,-66.27048 -0.15644,-69.00512 -4.51097,-78.85148 -4.0946,-9.25861 -10.12845,-14.45867 -27.98903,-24.12133 -3.85,-2.08287 -8.63613,-4.72365 -10.63584,-5.86841 -1.99971,-1.14475 -8.4369,-4.78137 -14.30487,-8.08137 -5.86797,-3.3 -11.88184,-6.68871 -13.36416,-7.53046 -1.48232,-0.84175 -7.56012,-4.21675 -13.50621,-7.5 -5.9461,-3.283247 -12.9211,-7.217152 -15.5,-8.742011 -13.30842,-7.869022 -22.4942,-10.332088 -34.84237,-9.342589 -11.33104,0.907993 -16.81963,3.215838 -54.09742,22.74688 -5.91202,3.0975 -14.57413,7.55282 -19.24913,9.90071 -4.675,2.3479 -11.875,6.11307 -16,8.36706 -4.125,2.25399 -10.425,5.46077 -14,7.12619 -10.196851,4.75023 -14.679655,8.05902 -19.730808,14.56346 -9.073677,11.6843 -8.674277,7.68285 -8.724818,87.41076 l -0.04437,70 3.444734,8.5 c 6.846422,16.89378 14.89093,27.80661 25.211832,34.20127 11.1026,6.87898 17.94516,11.18719 20.32771,12.79873 2.10439,1.42339 4.08665,2.73906 10.16988,6.75 1.45978,0.9625 6.17681,4 10.48228,6.75 20.99397,13.40932 24.89696,15.923 31.86356,20.5214 15.90037,10.49526 17.29758,10.9405 33.5,10.67514 11.18622,-0.18321 12.30517,-0.38436 16.5,-2.96613 z m 15.36994,-34.97875 C 239.80071,360.10579 235.61112,344.53107 238.29077,333 c 2.94899,-12.69011 6.46192,-18.58013 12.51128,-20.97728 4.53248,-1.79605 10.33232,0.15359 13.73742,4.61791 6.42579,8.42465 8.63732,25.16672 4.93347,37.348 C 266.80534,362.76185 260.13547,370 254.71863,370 c -2.69052,0 -4.62085,-0.85326 -7.34869,-3.24834 z m -85.73921,-8.82749 c -12.61918,-9.92625 -15.49569,-33.53429 -6.04986,-49.65237 4.35353,-7.42874 11.05884,-10.06084 17.34669,-6.80926 2.85007,1.47383 9.18042,10.06106 11.05871,15.00134 0.55755,1.46647 1.01373,7.60198 1.01373,13.63446 0,9.78849 -0.27561,11.51204 -2.56256,16.02512 -1.40941,2.78133 -4.39172,7.04137 -6.62736,9.46675 -3.41195,3.70153 -4.66513,4.40979 -7.80258,4.40979 -2.2691,0 -4.77472,-0.81565 -6.37677,-2.07583 z M 309,333.77056 c -4.61589,-2.42171 -8.56634,-9.81529 -10.46369,-19.58363 -1.65007,-8.49522 -1.65456,-9.4973 -0.0774,-17.28099 1.82749,-9.01903 3.10818,-12.0496 7.09365,-16.78606 2.37539,-2.82299 3.16905,-3.11988 8.34015,-3.11988 5.16526,0 6.00363,0.31259 8.71645,3.25 1.65083,1.7875 4.1016,5.69364 5.44616,8.68031 2.15764,4.79275 2.43658,6.78866 2.37581,17 -0.0623,10.46419 -0.32662,12.09522 -2.76664,17.06969 -4.22238,8.60818 -6.53991,10.89335 -11.69313,11.52987 -2.78129,0.34354 -5.41633,0.0565 -6.97138,-0.75931 z M 246.2532,278.75 c -5.22654,-3.68601 -8.25332,-9.249 -9.87684,-18.15288 -2.76915,-15.18688 1.26765,-31.04164 9.23228,-36.26026 6.72669,-4.4075 15.5932,-0.39496 19.9892,9.04611 2.11771,4.54809 2.38371,6.54165 2.39239,17.92998 0.009,11.88772 -0.18429,13.20927 -2.67761,18.30129 C 262.31757,275.73093 256.16826,281 252.02478,281 c -1.41967,0 -4.01688,-1.0125 -5.77158,-2.25 z m 58.41095,-36.63289 c -3.05265,-2.01266 -7.6142,-7.21099 -9.56139,-10.89615 -1.61364,-3.0539 -2.54358,-17.28031 -1.66552,-25.47948 0.52842,-4.93434 1.49145,-7.80065 3.78348,-11.26099 4.0276,-6.08056 9.87778,-9.8374 13.93219,-8.9469 4.1868,0.91957 9.53326,5.91359 12.41131,11.59315 2.20533,4.352 2.43489,6.01621 2.4264,17.59002 -0.009,12.3843 -0.1036,12.94753 -3.0284,18.04753 -3.22345,5.62079 -9.91006,11.23995 -13.36226,11.22912 -1.15498,-0.004 -3.37609,-0.84796 -4.93581,-1.8763 z M 99.144739,238.5118 c -5.903027,-5.33303 -9.425362,-14.10188 -9.955916,-24.78525 -0.389582,-7.84474 -0.131534,-9.57472 2.437736,-16.34288 C 95.166144,188.05944 100.95756,182 106.32977,182 c 7.73025,0 14.45626,8.42665 17.16095,21.5 1.55943,7.53769 1.55178,8.5124 -0.13239,16.86677 -1.9067,9.45817 -6.33565,17.93946 -10.60689,20.31184 -4.37656,2.43088 -9.40373,1.63032 -13.606701,-2.16681 z M 207.5,164.58391 c -0.55,-0.20368 -4.54794,-1.1602 -8.88432,-2.1256 -9.25348,-2.0601 -13.61645,-5.27499 -16.14536,-11.89686 -1.58375,-4.14698 -1.56816,-4.55184 0.34155,-8.86905 2.21948,-5.0175 4.11427,-6.53223 12.18813,-9.74343 4.50578,-1.79207 7.48844,-2.18296 16.5,-2.16238 9.88542,0.0226 11.67956,0.31803 17.7067,2.91591 7.50124,3.23327 12.13164,8.48706 12.16036,13.7975 0.0206,3.81084 -4.82171,11.16663 -8.65641,13.14963 -5.58931,2.89034 -22.03702,6.10952 -25.21065,4.93428 z M 439,272.99413 c 2.475,-0.48766 5.85,-1.17016 7.5,-1.51668 5.51976,-1.1592 21.58053,-9.86486 28.06122,-15.21043 6.85218,-5.652 7.72136,-6.89668 38.59353,-55.26702 2.28173,-3.575 5.72479,-8.975 7.65124,-12 1.92644,-3.025 5.82418,-9.1 8.66163,-13.5 13.15051,-20.39232 13.60915,-21.46757 14.26966,-33.45436 0.45781,-8.30818 0.21687,-10.63441 -1.67033,-16.12711 -1.21291,-3.53019 -2.94833,-7.54353 -3.85647,-8.91853 -0.90815,-1.375 -2.33952,-3.70424 -3.18083,-5.17609 -0.84131,-1.47186 -4.67965,-7.46182 -8.52965,-13.311041 -3.85,-5.849218 -9.34102,-14.319976 -12.20226,-18.823906 -2.86124,-4.503929 -6.01124,-9.300849 -7,-10.659821 -1.55855,-2.142114 -7.30883,-11.106854 -13.04887,-20.343303 -0.96188,-1.547789 -3.18726,-4.922789 -4.94529,-7.5 -1.75803,-2.577212 -4.09951,-6.314214 -5.20329,-8.30445 C 480.96249,27.223605 469.28311,17.06978 462.1545,13.802151 458.66448,12.202386 451.57135,9.792452 446.392,8.4467432 L 436.975,6 371.8473,6 306.7196,6 299.03773,8.5480155 C 290.14122,11.498922 282.9837,17.111054 277.64297,25.323414 273.86876,31.12696 258,59.557783 258,60.516192 c 0,0.339488 -1.05435,2.049727 -2.34301,3.80053 C 252.61986,68.443059 246,81.47747 246,83.331213 c 0,0.789056 2.3625,2.630872 5.25,4.092924 2.8875,1.462053 9.525,5.133411 14.75,8.158575 5.225,3.025164 11.3,6.391958 13.5,7.481768 2.2,1.08981 6.7,3.60074 10,5.57984 3.3,1.97911 8.025,4.7171 10.5,6.08443 6.71682,3.71074 12.96243,7.1844 18,10.01116 2.475,1.38881 5.87055,3.25298 7.54566,4.1426 9.17263,4.8714 19.57528,14.75541 22.88361,21.7427 3.80359,8.03329 4.52893,15.67173 4.55092,47.92479 0.0145,21.23818 0.3425,29.37269 1.21981,30.25 0.66,0.66 2.45517,1.2 3.98927,1.2 4.40249,0 12.2658,3.41957 17.24446,7.49921 4.25435,3.48612 4.56627,4.06582 4.56627,8.48639 0,7.75683 -6.39455,13.44452 -18,16.01027 -7.60626,1.68161 -8.45502,2.25144 -8.81823,5.9203 -0.62097,6.27245 -1.88524,6.08977 41.69067,6.02422 21.79516,-0.0328 41.65256,-0.4586 44.12756,-0.94626 z m 20.5,-71.39717 c -6.28822,-1.26508 -8.19121,-2.09377 -14.28519,-6.22074 -4.33244,-2.93402 -5.04929,-4.35135 -5.14452,-10.17167 -0.0731,-4.46962 0.81583,-5.73285 7.63653,-10.85163 6.90559,-5.18248 23.83159,-6.98924 34.42835,-3.67503 3.11747,0.97501 7.56408,3.52083 10.61483,6.07732 4.9157,4.1193 5.25,4.68839 5.25,8.93724 0,3.96034 -0.47721,4.97924 -3.75,8.00663 -5.13013,4.74546 -9.57775,6.84258 -17.33191,8.17226 -7.80585,1.33854 -9.53643,1.31128 -17.41809,-0.27438 z M 384.45177,117.97702 C 370.6608,115.2386 364.99495,111.7689 362.03624,104.25 c -2.6034,-6.615968 3.55708,-14.133861 14.02996,-17.12134 10.28429,-2.933684 14.81046,-3.258066 21.9338,-1.571958 3.575,0.846209 7.73531,1.792881 9.24514,2.103716 2.99472,0.616537 9.46444,6.559902 11.71163,10.758808 1.26666,2.366764 1.19294,3.092914 -0.71199,7.013834 -2.26394,4.65989 -7.14102,8.94564 -11.24478,9.88141 -1.375,0.31353 -5.2,1.26401 -8.5,2.11218 -6.56746,1.68796 -8.03059,1.74528 -14.04823,0.55037 z m 87.43801,-2.94403 c -7.30822,-0.96325 -16.47577,-5.62704 -18.95899,-9.64498 -2.55136,-4.12818 -2.50849,-10.383867 0.0938,-13.692176 2.89422,-3.679414 12.27726,-7.802732 19.91919,-8.753366 9.93726,-1.236169 17.96014,-0.139118 25.19751,3.445514 7.52969,3.729416 10.36134,7.219241 10.22035,12.595953 -0.28787,10.978795 -17.49441,18.550345 -36.47189,16.049055 z M 340.58438,58.887148 c -8.18524,-2.332612 -13.49799,-6.53443 -15.4086,-12.186569 -1.69615,-5.017685 -0.35026,-8.602315 4.745,-12.637837 6.26773,-4.964132 15.13046,-7.334925 25.57922,-6.842475 7.63087,0.359642 9.98882,0.915355 15.5,3.652985 6.11425,3.037195 12,8.960403 12,12.076362 0,4.333115 -7.00893,12.461063 -12.5,14.49569 -10.68565,3.959398 -19.57756,4.387962 -29.91562,1.441844 z m 88.95708,-5.437244 c -18.93956,-6.737245 -19.09818,-21.557957 -0.29867,-27.906353 9.39585,-3.172879 13.9876,-3.720663 20.65997,-2.464676 18.50968,3.484203 25.92546,9.853373 23.06123,19.806535 -1.34159,4.662029 -5.20165,7.620681 -13.91357,10.664442 -9.57355,3.3448 -19.92373,3.309743 -29.50896,-0.09995 z"
       id="path2822" />
    <path
       style="fill:#050505"
       d="m 201.48188,411.02932 c 0.32995,-0.53388 -0.65599,-1.27757 -2.19098,-1.65264 -4.05227,-0.99017 -13.01517,-5.33952 -14.37169,-6.97403 C 184.27895,401.63119 183.40044,401 182.96695,401 182.22813,401 169.1607,392.72149 162.5,388.03374 c -1.65,-1.16126 -5.25,-3.52796 -8,-5.25934 -6.24446,-3.93146 -39.94851,-26.00032 -52,-34.04874 -4.95,-3.30579 -10.415996,-7.89082 -12.146657,-10.18896 -2.777453,-3.68817 -11.700741,-10.81122 -33.13714,-26.45185 -3.456088,-2.52167 -8.181088,-5.98233 -10.5,-7.69036 -5.359067,-3.9473 -22.885879,-16.73479 -28.502787,-20.79552 -2.357621,-1.70443 -5.44037,-3.95472 -6.850553,-5.00065 -1.4101829,-1.04592 -3.4232029,-3.90618 -4.4733779,-6.35614 -1.5910237,-3.71171 -1.7309675,-5.11715 -0.8392659,-8.42868 2.1855896,-8.11666 3.8804313,-9.18023 58.1472868,-36.48925 l 10.697505,-5.38337 0.359837,-31.22044 0.359836,-31.22044 2.942658,-5.50461 c 8.08805,-15.12969 11.32467,-17.82423 37.710458,-31.3945 10.02771,-5.15728 22.7322,-11.74478 28.2322,-14.63888 20.40762,-10.738521 31.30786,-16.387475 43,-22.284361 l 12,-6.052156 12.72616,-0.430247 c 10.09215,-0.341196 14.08717,-0.06184 19.30184,1.349705 7.88341,2.133941 7.30889,2.546121 14.00125,-10.044951 5.54713,-10.436411 7.0378,-13.130625 15.492,-28 3.43981,-6.05 6.9473,-12.35 7.79441,-14 2.56046,-4.987252 8.62993,-12.77213 13.11367,-16.819971 C 285.96121,8.0401181 293.63222,4 296.51148,4 c 0.74011,0 2.13333,-0.7875 3.09603,-1.75 1.63475,-1.63441614 6.52944,-1.75 74.10809,-1.75 47.09627,0 72.60677,0.34911909 73.07107,1 0.73677,1.032853 5.83024,3.2004305 10.21333,4.34638 6.37641,1.6670995 17.83198,8.960039 24.25,15.438231 3.7125,3.747307 6.75,7.169653 6.75,7.605213 0,0.435559 3.97306,6.826033 8.82902,14.201051 10.19085,15.477394 22.8458,34.828014 34.9286,53.409125 4.64946,7.15 9.23571,14.125 10.19167,15.5 0.95596,1.375 2.72594,4.73426 3.93329,7.46501 1.20735,2.73076 2.74018,5.30184 3.4063,5.71353 1.56676,0.96831 1.71483,26.55255 0.15978,27.60793 -0.57824,0.39244 -1.89155,2.96353 -2.91846,5.71353 -1.02692,2.75 -3.97014,8.15 -6.54049,12 -2.57035,3.85 -6.88205,10.29146 -9.58154,14.31436 -2.69949,4.0229 -5.35817,8.0483 -5.90817,8.94534 -1.6793,2.73888 -21.29639,32.88958 -31.14647,47.8709 -8.88723,13.51688 -14.85778,20.04512 -21.35353,23.34811 -1.375,0.69917 -3.4,2.03 -4.5,2.9574 -2.44786,2.06378 -17.5179,7.64508 -23,8.51822 -2.2,0.3504 -7.6,1.02141 -12,1.49114 -4.4,0.46973 -9.575,1.31461 -11.5,1.8775 -1.925,0.56289 -8.225,2.22174 -14,3.68633 -5.775,1.46459 -13.875,3.60353 -18,4.7532 -4.125,1.14966 -9.3,2.40992 -11.5,2.80058 -2.2,0.39065 -7.15,1.62477 -11,2.74248 -3.85,1.11772 -8.8,2.40622 -11,2.86333 l -4,0.83111 -0.70232,6 c -0.87236,7.45264 -5.0726,20.67298 -7.77282,24.46508 -1.11367,1.56401 -2.02486,3.1497 -2.02486,3.52374 0,1.62902 -9.50857,12.58164 -12.83927,14.78916 -2.0134,1.33443 -6.96324,4.55372 -10.99964,7.15396 -4.0364,2.60024 -11.2364,7.27929 -16,10.39789 C 296.39749,366.94842 292.05,369.725 291.5,370 c -1.08821,0.54411 -11.98256,7.65944 -22.8479,14.92247 -3.76635,2.51764 -7.58783,5.02753 -8.49218,5.57753 -0.90435,0.55 -4.79779,3.03392 -8.6521,5.51981 -16.63057,10.72616 -20.57723,12.80206 -25.67104,13.50264 -2.66023,0.36587 -4.83678,1.073 -4.83678,1.57139 0,0.49839 -4.52656,0.90616 -10.05902,0.90616 -6.24883,0 -9.83178,-0.36768 -9.4591,-0.97068 z M 237.10476,399.8549 C 241.72214,396.7856 253.375,389.20678 263,383.01308 c 9.625,-6.1937 21.1,-13.61514 25.5,-16.49209 9.6245,-6.29301 20.84575,-13.49597 29,-18.61521 16.52856,-10.37664 23.40248,-20.57848 28.94515,-42.9586 1.43113,-5.77861 1.58932,-14.46267 1.33886,-73.5 L 347.5,164.5 345,158.08607 c -4.90775,-12.59119 -10.80462,-17.28799 -45,-35.84202 -3.575,-1.93975 -9.5375,-5.2632 -13.25,-7.38544 -3.7125,-2.12223 -9.7875,-5.59499 -13.5,-7.71722 -3.7125,-2.12224 -9.675,-5.43777 -13.25,-7.36785 -3.575,-1.930078 -9.36796,-5.197761 -12.87324,-7.261518 C 234.34458,84.986431 229.79153,83.64805 217,83.656187 c -16.05198,0.01021 -14.67619,-0.518322 -60.38278,23.197143 -5.98554,3.10567 -21.51054,11.02043 -34.5,17.58836 -22.250637,11.2507 -24.023914,12.35497 -30.64568,19.08391 -6.213859,6.31444 -7.372863,8.11765 -10,15.55831 L 78.5,167.5 l 0,68.5 0,68.5 3.71663,8.5 c 5.178635,11.84363 6.742184,14.71361 11.440713,21 6.344187,8.4882 7.961807,9.75296 31.342657,24.50571 5.89288,3.71826 24.48973,15.77547 45.5,29.49977 27.91676,18.23576 27.33036,18.0086 45.60476,17.66616 l 12.60475,-0.23619 8.39525,-5.58055 z m 11.26518,-34.10324 c -4.25804,-3.73861 -7.707,-10.86864 -9.35908,-19.34805 -0.92967,-4.77154 -0.86839,-7.15005 0.31955,-12.40361 3.08027,-13.62222 5.59464,-18.10619 11.5478,-20.59358 4.26187,-1.78072 9.19382,-0.29796 12.64288,3.80102 3.41339,4.05658 6.85789,16.12752 6.78932,23.79256 -0.1014,11.33618 -5.24507,23.36349 -11.33959,26.51509 -4.26821,2.20718 -6.50178,1.83563 -10.60088,-1.76343 z M 161.33792,355.75 c -6.67809,-7.47286 -9.33385,-14.98354 -9.28192,-26.25 0.0703,-15.25764 6.59473,-27.5 14.65576,-27.5 6.01986,0 8.38563,1.97461 13.53824,11.2998 2.55214,4.61887 2.75,5.8045 2.75,16.47904 0,12.80597 -1.22141,16.61501 -7.78765,24.28618 -2.93918,3.43377 -3.90924,3.93498 -7.61596,3.93498 -3.14266,0 -4.77087,-0.58536 -6.25847,-2.25 z m 148.15224,-23.10636 c -4.09101,-1.82832 -7.9098,-9.233 -9.93002,-19.25445 -1.50945,-7.48777 -1.51067,-8.71302 -0.0158,-15.95021 1.71353,-8.29577 4.26764,-14.25098 7.49713,-17.48047 1.42735,-1.42735 3.32749,-1.95851 7.00626,-1.95851 5.98747,0 8.35165,2.03161 12.66371,10.88226 2.48772,5.10611 2.73324,6.61956 2.69582,16.61774 -0.038,10.16809 -0.27416,11.49177 -3.12193,17.50244 -1.69442,3.57634 -3.91429,7.25076 -4.93306,8.16538 -2.63846,2.36876 -8.2906,3.07197 -11.86213,1.47582 z M 247.5,278.16231 c -8.37885,-5.1117 -12.7264,-20.12776 -10.14099,-35.0261 1.82584,-10.52139 5.18744,-16.33746 10.72298,-18.55234 3.98257,-1.59351 4.30722,-1.57387 8.63784,0.52255 3.78044,1.83008 4.96163,3.15462 7.38917,8.28593 2.67789,5.66052 2.88948,6.97239 2.89021,17.91958 7.1e-4,10.58451 -0.26404,12.37173 -2.54782,17.19923 -2.55355,5.39777 -9.13343,11.49296 -12.39839,11.4851 -0.85415,-0.002 -2.903,-0.82733 -4.553,-1.83395 z m 58.49476,-36.60604 C 303.4082,240.14835 298.38487,234.38655 295.91962,230 c -1.00812,-1.7938 -1.40219,-6.17226 -1.39501,-15.5 0.009,-11.52775 0.26031,-13.453 2.22018,-17 3.01979,-5.46528 4.15881,-6.7191 8.52751,-9.387 l 3.77231,-2.30369 4.72769,2.34535 c 3.83561,1.90278 5.33565,3.47751 7.94958,8.34534 3.10397,5.7804 3.22292,6.43408 3.25,17.86002 0.0271,11.42706 -0.0876,12.07714 -3.14182,17.80744 -2.27666,4.27146 -4.34444,6.63572 -7.33786,8.38998 -4.78192,2.80239 -5.11261,2.84126 -8.49744,0.99883 z M 98.975016,236.21031 C 85.176922,222.41222 90.795544,184 106.61191,184 c 7.19961,0 12.1681,6.52387 14.87556,19.5323 1.56229,7.50627 1.55513,8.48892 -0.12361,16.9677 -1.9127,9.66046 -6.17199,17.81783 -9.86386,18.89121 -5.23993,1.52346 -8.69913,0.64495 -12.524984,-3.1809 z M 206.5,163.38673 c -1.1,-0.26905 -4.89008,-1.18159 -8.42241,-2.02787 -8.37192,-2.00575 -10.67231,-3.62556 -13.73654,-9.67254 l -2.5349,-5.00237 2.27283,-4.85257 c 1.92154,-4.10257 3.12565,-5.25602 7.79072,-7.46295 11.09312,-5.24789 27.66256,-5.23884 38.26383,0.0209 5.0945,2.5276 6.74208,3.97746 8.78975,7.73494 l 2.52003,4.62427 -2.97166,4.77947 c -1.63441,2.6287 -4.09665,5.60908 -5.47165,6.62306 -4.40146,3.2458 -21.12595,6.55009 -26.5,5.23566 z M 440,273.99413 c 8.96915,-1.76722 10.60569,-2.27841 17,-5.31011 12.91308,-6.12242 23.91189,-14.5588 27.75383,-21.2879 1.93381,-3.38705 10.41528,-16.60378 19.99617,-31.16017 3.4375,-5.22265 6.25,-9.64672 6.25,-9.83128 0,-0.3651 9.52309,-15.20414 19.63412,-30.59422 C 534.13535,170.48119 537,165.71344 537,165.21543 c 0,-0.498 0.8732,-1.69569 1.94044,-2.66153 3.11784,-2.82161 5.16937,-10.32101 5.75949,-21.0539 0.43498,-7.91114 0.21041,-10.80883 -1.07505,-13.87212 C 542.7312,125.49821 542,123.05105 542,122.18976 c 0,-0.8613 -0.90951,-2.94385 -2.02113,-4.62788 -6.45512,-9.77907 -21.19382,-32.687703 -25.47887,-39.602288 -2.75,-4.437546 -6.0125,-9.346273 -7.25,-10.908284 -1.2375,-1.562011 -2.25,-3.08376 -2.25,-3.381664 0,-0.297904 -2.3625,-4.117484 -5.25,-8.487956 -6.43372,-9.737969 -12.52151,-19.214914 -15.44912,-24.04985 -3.20407,-5.2915 -16.5448,-16.205642 -23.1271,-18.920427 C 458.0532,10.924368 451.33187,8.7752828 446.2375,7.4356663 L 436.975,5 371.46872,5 305.96244,5 298.9614,7.4460157 C 295.11083,8.7913244 290.50679,10.886912 288.73018,12.102876 284.6279,14.910616 278,21.15465 278,22.211607 c 0,0.443141 -1.35,2.669332 -3,4.94709 -1.65,2.277759 -3,4.461543 -3,4.852853 0,0.680408 -5.04346,10.005337 -9.99962,18.48845 -1.28532,2.2 -3.33602,5.8 -4.55711,8 -1.22109,2.2 -4.10498,7.375 -6.40865,11.5 -2.30367,4.125 -4.84921,9.066158 -5.65677,10.98035 -1.68689,3.998511 -1.57742,4.137673 6.96107,8.849418 2.66141,1.468627 6.03641,3.36917 7.5,4.223428 1.4636,0.854257 4.91108,2.783291 7.66108,4.286742 2.75,1.503451 7.57254,4.179512 10.71677,5.946802 3.14422,1.76729 15.74422,8.80881 28,15.64783 25.15392,14.03647 26.6137,14.95641 32.59391,20.54037 5.23205,4.88538 7.55426,8.50062 10.38915,16.17397 2.00764,5.4342 2.20222,8.27361 2.73092,39.85109 l 0.56925,34 5.05524,0.61705 c 6.5569,0.80035 14.10584,4.1736 18.19476,8.13034 3.64872,3.53077 4.27766,7.86465 1.82864,12.60054 -2.22919,4.31078 -13.1963,9.35194 -22.57864,10.37853 -2.23721,0.24479 -2.53257,0.78577 -2.80981,5.14648 -0.1704,2.68012 -0.072,5.49262 0.21861,6.25 0.43746,1.13999 7.63532,1.3668 41.80982,1.31745 22.70476,-0.0328 43.30638,-0.4586 45.78138,-0.94626 z m 20.5,-73.40692 c -6.02129,-1.22116 -11.96534,-3.90567 -16.35398,-7.38593 -1.66153,-1.31762 -2.50864,-3.2388 -2.87971,-6.53097 -0.50595,-4.48875 -0.36096,-4.8157 3.85398,-8.69061 10.25718,-9.42972 32.54573,-10.67833 44.26427,-2.4797 5.96668,4.17446 7.61544,6.31303 7.61544,9.87782 0,6.98795 -8.67457,13.36259 -21.08191,15.49237 -7.63774,1.31105 -7.55042,1.31265 -15.41809,-0.28298 z m -74,-83.17805 c -16.02593,-3.63267 -20.45725,-5.97774 -23.05807,-12.20238 -1.4041,-3.36049 -1.38636,-4.00361 0.20803,-7.539331 2.27896,-5.053825 6.36687,-7.954876 14.35004,-10.183721 8.50227,-2.373774 17.85899,-2.212305 25.96403,0.448061 6.87909,2.257963 9.9173,4.522093 13.20374,9.839672 2.46587,3.989849 1.54112,7.179879 -3.49686,12.062889 -4.79398,4.64651 -20.62235,9.0592 -27.17091,7.57481 z m 85.5,-3.3712 c -6.8524,-0.91507 -15.16012,-5.04972 -17.91223,-8.9147 -2.46985,-3.46858 -2.72781,-9.216804 -0.56197,-12.522299 0.8392,-1.28077 4.72427,-3.802937 8.6335,-5.604817 6.62597,-3.054107 7.83236,-3.276144 17.80023,-3.276144 9.63239,0 11.23033,0.269171 16.11651,2.714812 9.648,4.829039 12.84674,9.239119 10.92495,15.062178 -3.05224,9.2484 -18.42098,14.75507 -35.00099,12.54097 z M 346.5,59.49374 c -0.55,-0.1916 -3.55757,-1.059945 -6.6835,-1.929654 -6.73128,-1.872809 -11.32012,-5.440325 -13.39964,-10.417315 -1.36018,-3.255353 -1.34938,-3.970011 0.10882,-7.203724 3.44696,-7.643978 15.46526,-12.444561 29.37604,-11.733944 10.91302,0.55748 19.56931,4.52335 23.78822,10.898546 l 2.70393,4.085926 -2.36614,4.460218 c -2.7526,5.188713 -8.0297,8.674768 -16.45274,10.868691 -5.11471,1.332212 -14.5055,1.866377 -17.07499,0.971256 z m 84,-6.661309 c -3.3,-1.146365 -7.44798,-3.164454 -9.21773,-4.484644 -3.90694,-2.914477 -5.91426,-8.598861 -4.41753,-12.509666 1.86959,-4.885036 11.63871,-9.941046 23.86523,-12.351457 6.6581,-1.312618 22.40728,3.190913 27.96621,7.997028 3.46608,2.996688 3.79488,3.716225 3.70317,8.103865 -0.0883,4.221582 -0.54172,5.196447 -3.67853,7.907999 -8.21548,7.101728 -25.99416,9.584211 -38.22082,5.336875 z"
       id="path2820" />
  </g>
</svg>
